<svg width="180" height="28" viewBox="0 0 180 28" fill="none" xmlns="http://www.w3.org/2000/svg">
<path d="M11.885 10.9518C12.0353 10.9525 12.1856 10.9531 12.3405 10.9538C16.277 10.9739 20.2292 11.264 24.0941 12.0214C24.3371 13.4623 24.5529 14.9859 24.0941 16.3994C23.0307 17.7282 21.2672 18.6552 19.6544 19.1854C19.6544 17.8063 19.6544 16.4272 19.6544 15.0064C17.2327 14.8649 14.8155 14.7779 12.3899 14.7612C12.098 14.7589 11.8061 14.7555 11.5142 14.751C9.38562 14.7202 7.21217 14.7423 5.52814 16.2004C4.69452 17.4608 4.7678 18.9185 4.92273 20.3794C5.17522 21.2276 5.56622 21.6714 6.33535 22.1455C7.21474 22.4706 7.92472 22.5937 8.86658 22.5948C9.0834 22.595 9.30023 22.5953 9.52362 22.5955C9.74929 22.5948 9.97496 22.594 10.2075 22.5932C10.4292 22.594 10.651 22.5947 10.8795 22.5955C15.9432 22.5896 20.093 20.5337 24.1318 17.6437C25.2432 16.8486 26.3406 16.1233 27.5642 15.5008C27.9653 15.2915 28.359 15.0681 28.7466 14.8354C33.6434 11.9041 39.6988 10.2118 45.4096 11.2627C47.4537 11.772 49.2129 12.6045 50.3783 14.3985C51.5967 16.6431 51.652 19.1777 50.9537 21.6021C50.1711 23.6097 48.7959 24.7679 46.8566 25.6478C44.2794 26.7231 41.3819 26.6521 38.6366 26.6354C38.4452 26.6352 38.2537 26.6349 38.0565 26.6347C34.4336 26.6266 30.8999 26.3079 27.323 25.7523C26.9962 21.9093 26.9962 21.9093 27.6872 20.7781C28.2176 20.3629 28.7323 20.0747 29.341 19.7824C29.7873 19.518 30.2329 19.2527 30.678 18.9864C31.2149 18.6908 31.2149 18.6909 31.7627 18.3894C31.7627 19.7684 31.7627 21.1475 31.7627 22.5683C34.0984 22.7258 36.4286 22.7985 38.7692 22.8135C39.0819 22.8159 39.3946 22.8193 39.7072 22.8237C41.9344 22.8538 44.0867 22.8481 45.8889 21.3743C46.5345 20.5448 46.5871 19.7998 46.57 18.7874C46.5735 18.5788 46.5735 18.5788 46.5771 18.366C46.5719 17.4661 46.406 16.9341 45.8889 16.2004C45.8889 16.069 45.8889 15.9377 45.8889 15.8024C42.2102 14.2634 37.6372 14.7165 33.9709 16.1137C31.5377 17.0941 29.3797 18.4191 27.2725 19.9565C23.5385 22.6467 19.3016 24.8098 14.8111 25.9513C14.5877 26.0106 14.3642 26.0698 14.134 26.1309C10.5451 26.9683 6.13058 27.0936 2.90469 25.1553C1.39845 24.2127 0.650852 22.5622 0.20556 20.8893C-0.151369 18.8863 -0.124529 16.7564 0.944982 14.9699C2.6342 12.6138 4.89213 11.6597 7.71724 11.1484C9.1011 10.9273 10.4868 10.9371 11.885 10.9518Z" fill="#EDE8D0"/>
<path d="M62.6832 9.38563C64.2815 9.38563 65.8798 9.38563 67.5265 9.38563C68.4346 11.1765 68.4346 11.1765 68.7179 11.8719C68.7819 12.0282 68.846 12.1845 68.912 12.3455C69.0117 12.5915 69.0117 12.5915 69.1134 12.8425C69.185 13.0177 69.2567 13.1929 69.3305 13.3735C69.558 13.9303 69.7847 14.4874 70.0112 15.0446C70.3087 15.7741 70.6065 16.5035 70.9044 17.2329C70.9765 17.4097 71.0487 17.5866 71.123 17.7688C71.7982 19.4226 72.4854 21.0714 73.177 22.7185C73.5855 22.2063 73.9083 21.7145 74.1853 21.1234C74.2628 20.9602 74.3404 20.7969 74.4203 20.6287C74.5478 20.358 74.5478 20.358 74.6779 20.0818C75.8012 17.7292 76.9775 15.404 78.1591 13.0795C78.2517 12.8972 78.3444 12.7148 78.4398 12.527C78.9721 11.4796 79.505 10.4325 80.0384 9.38563C81.0373 9.38563 82.0362 9.38563 83.0654 9.38563C84.8232 12.8341 86.5792 16.2815 88.2524 19.7709C88.7281 20.761 89.2243 21.7405 89.725 22.7185C90.1932 22.026 90.4886 21.3009 90.8033 20.5334C90.9019 20.2954 90.9019 20.2954 91.0025 20.0525C91.1433 19.7123 91.2838 19.3719 91.4241 19.0314C91.7152 18.3247 92.0079 17.6186 92.3005 16.9125C92.4464 16.5603 92.5922 16.2081 92.738 15.8559C93.3396 14.4022 93.945 12.9501 94.5556 11.5C94.6376 11.3042 94.7195 11.1084 94.8039 10.9067C94.9148 10.644 94.9148 10.644 95.0278 10.376C95.0908 10.2263 95.1537 10.0767 95.2185 9.92248C95.3755 9.58463 95.3755 9.58463 95.5773 9.38563C95.9219 9.36829 96.2672 9.36434 96.6123 9.3662C96.9254 9.36716 96.9254 9.36716 97.2449 9.36814C97.4646 9.36981 97.6843 9.37148 97.9106 9.3732C98.2413 9.37454 98.2413 9.37454 98.5787 9.37592C99.1254 9.37827 99.6721 9.38155 100.219 9.38563C100.079 10.3064 99.732 11.1239 99.3674 11.9757C99.2675 12.2123 99.2675 12.2123 99.1656 12.4536C98.9457 12.9736 98.7246 13.493 98.5034 14.0123C98.2714 14.5596 98.0395 15.107 97.8077 15.6544C97.647 16.0339 97.4862 16.4133 97.3252 16.7926C96.7503 18.1483 96.182 19.5066 95.6167 20.8661C95.3843 21.4237 95.1519 21.9812 94.9194 22.5387C94.7699 22.8979 94.6207 23.2572 94.4719 23.6167C94.2639 24.1192 94.0544 24.6211 93.8446 25.1228C93.7836 25.2713 93.7225 25.4198 93.6596 25.5727C93.0407 27.0452 93.0407 27.0452 92.5502 27.4945C92.0184 27.5848 92.0183 27.5848 91.3875 27.5722C91.1618 27.5696 90.9361 27.5671 90.7036 27.5644C90.4681 27.5578 90.2325 27.5511 89.9898 27.5442C89.7519 27.5406 89.514 27.537 89.2689 27.5333C88.6808 27.524 88.093 27.5109 87.5051 27.4945C85.8317 24.5584 84.2815 21.5707 82.7679 18.5525C82.6954 18.4081 82.6228 18.2638 82.5481 18.115C82.4106 17.8412 82.2735 17.5671 82.1368 17.2928C81.8559 16.6812 81.8559 16.6812 81.451 16.1516C80.6545 17.7186 79.8602 19.2867 79.0724 20.858C78.7198 21.5609 78.3662 22.2633 78.0125 22.9657C77.8302 23.3284 77.6482 23.6914 77.4666 24.0545C77.2009 24.5858 76.9336 25.1163 76.666 25.6467C76.5849 25.8098 76.5038 25.9729 76.4202 26.141C76.3446 26.2901 76.269 26.4391 76.1912 26.5927C76.1252 26.7241 76.0593 26.8554 75.9914 26.9908C75.8005 27.2955 75.8005 27.2955 75.3969 27.4945C75.0162 27.5114 74.6349 27.5158 74.2538 27.5139C73.9144 27.5129 73.9144 27.5129 73.568 27.512C73.3308 27.5103 73.0935 27.5086 72.8491 27.5069C72.6103 27.506 72.3715 27.5051 72.1254 27.5042C71.5342 27.5018 70.943 27.4986 70.3518 27.4945C69.754 26.348 69.2275 25.1896 68.7334 23.9965C68.6575 23.8147 68.5817 23.633 68.5035 23.4457C68.2572 22.8553 68.0117 22.2645 67.7662 21.6738C67.4232 20.851 67.0799 20.0284 66.7366 19.2057C66.6507 18.9995 66.5647 18.7933 66.4761 18.5808C65.9161 17.2386 65.3523 15.898 64.7848 14.5588C64.7137 14.391 64.6426 14.2231 64.5693 14.0502C64.2992 13.413 64.029 12.7759 63.7581 12.139C63.5753 11.7092 63.3929 11.2793 63.2106 10.8494C63.1082 10.6085 63.0058 10.3677 62.9002 10.1196C62.6832 9.58463 62.6832 9.58463 62.6832 9.38563Z" fill="#EDE8D0"/>
<path d="M117.019 9.24877C117.172 9.26048 117.325 9.27219 117.483 9.28426C119.631 9.4513 121.72 9.74972 123.83 10.1816C124.277 14.7237 124.277 14.7237 123.575 16.0273C122.958 16.7505 122.213 17.2578 121.384 17.7231C120.978 17.9577 120.608 18.221 120.23 18.4975C119.592 18.9375 119.592 18.9375 119.188 18.9375C119.188 17.2958 119.188 15.654 119.188 13.9625C117.99 13.9053 117.99 13.9053 116.792 13.8495C116.075 13.8138 115.378 13.7672 114.668 13.6602C111.862 13.291 107.929 13.057 105.44 14.6093C104.542 15.4569 104.024 16.2321 103.946 17.4567C103.944 17.7803 103.946 18.104 103.952 18.4276C103.949 18.5883 103.946 18.749 103.943 18.9146C103.95 20.0727 104.207 20.9541 104.86 21.9225C106.352 23.3555 108.246 23.3891 110.229 23.3699C113.087 23.2401 115.681 22.4677 118.179 21.1265C118.386 21.02 118.592 20.9136 118.804 20.8039C120.709 19.7721 122.359 18.4237 124.021 17.0548C127.294 14.3605 127.294 14.3605 128.269 14.3605C128.715 18.009 128.715 18.009 128.031 19.1286C127.394 19.7916 126.619 20.2428 125.822 20.6977C125.245 21.0484 124.762 21.4899 124.259 21.9349C121.359 24.3218 117.831 26.2239 114.143 27.0964C113.956 27.1456 113.956 27.1456 113.766 27.1958C110.258 28.1177 106.182 28.5616 102.878 26.7661C100.852 25.5375 99.8971 23.8712 99.35 21.6247C98.7911 18.5353 98.9263 15.3699 100.673 12.6939C102.322 10.5455 104.876 9.51394 107.53 9.11973C110.689 8.7624 113.863 8.99784 117.019 9.24877Z" fill="#EDE8D0"/>
<path d="M147.239 0.828778C147.267 1.77082 147.192 2.57946 146.949 3.49038C146.895 3.69714 146.841 3.90389 146.786 4.11691C146.634 4.60975 146.634 4.60975 146.432 4.80874C146.007 4.78931 145.582 4.75745 145.158 4.72168C143.541 4.60979 141.923 4.56015 140.302 4.53512C140.062 4.52757 139.823 4.52002 139.576 4.51224C138.014 4.49747 136.832 4.71137 135.534 5.60474C134.425 6.85863 134.496 8.25407 134.494 9.83277C134.493 10.0141 134.492 10.1955 134.491 10.3823C134.488 10.7745 134.487 11.1667 134.485 11.5589C134.483 12.1794 134.479 12.8 134.475 13.4206C134.462 15.1844 134.451 16.9482 134.444 18.7121C134.44 19.7922 134.433 20.8722 134.424 21.9522C134.421 22.3637 134.42 22.7752 134.419 23.1866C134.418 23.7611 134.413 24.3355 134.408 24.91C134.408 25.0802 134.409 25.2503 134.41 25.4257C134.407 25.5824 134.405 25.7392 134.403 25.9007C134.402 26.0364 134.401 26.172 134.401 26.3118C134.295 26.8434 134.105 27.1119 133.718 27.4945C133.279 27.5849 133.279 27.5849 132.776 27.5723C132.596 27.5697 132.416 27.5672 132.23 27.5645C131.949 27.5545 131.949 27.5545 131.662 27.5443C131.473 27.5407 131.283 27.5371 131.087 27.5334C130.619 27.524 130.151 27.5109 129.682 27.4945C129.668 24.9152 129.657 22.3359 129.651 19.7566C129.648 18.5587 129.643 17.3609 129.636 16.163C129.63 15.0056 129.626 13.8483 129.625 12.6908C129.624 12.2507 129.621 11.8106 129.618 11.3704C129.575 5.3086 129.575 5.3086 131.7 2.81876C135.706 -0.831109 142.274 -0.272359 147.239 0.828778Z" fill="#EDE8D0"/>
<path d="M168.832 0.629688C170.364 0.629688 171.896 0.629688 173.474 0.629688C173.483 4.07365 173.49 7.51761 173.495 10.9616C173.497 12.5606 173.499 14.1596 173.504 15.7586C173.508 17.1519 173.511 18.5452 173.512 19.9386C173.512 20.6767 173.513 21.4148 173.516 22.1528C173.52 22.9758 173.52 23.7987 173.519 24.6217C173.522 24.9908 173.522 24.9908 173.524 25.3673C173.523 25.5906 173.523 25.8138 173.522 26.0438C173.523 26.2386 173.523 26.4334 173.523 26.6341C173.474 27.0965 173.474 27.0965 173.07 27.4945C171.672 27.4945 170.273 27.4945 168.832 27.4945C168.832 18.6291 168.832 9.76371 168.832 0.629688Z" fill="#EDE8D0"/>
<path d="M158.369 10.8999C159.098 10.9983 159.829 11.0803 160.56 11.1617C161.165 11.2294 161.77 11.3021 162.374 11.3754C162.346 11.8895 162.316 12.4036 162.286 12.9176C162.278 13.0628 162.27 13.208 162.262 13.3576C162.221 14.0474 162.155 14.6894 161.971 15.3554C160.607 15.2598 159.246 15.1493 157.887 15.0063C154.326 14.6459 150.794 14.4988 147.214 14.4972C147.009 14.4965 146.804 14.4959 146.593 14.4952C143.363 14.489 140.238 14.6268 137.095 15.4377C136.543 15.5543 136.543 15.5543 135.534 15.5543C135.534 14.241 135.534 12.9276 135.534 11.5744C142.7 9.5383 151.042 9.90278 158.369 10.8999Z" fill="#EDE8D0"/>
<path d="M158.298 0.191197C158.45 0.190062 158.602 0.188928 158.759 0.187759C159.082 0.185884 159.404 0.184581 159.727 0.183812C160.208 0.181905 160.69 0.175738 161.172 0.169431C163.254 0.155692 165.187 0.372683 167.218 0.828613C167.13 2.24456 166.938 3.48358 166.41 4.80858C166.26 4.79421 166.109 4.77985 165.954 4.76505C164.104 4.61524 162.25 4.56356 160.394 4.53496C160.019 4.5236 160.019 4.5236 159.636 4.51202C158.056 4.49781 156.815 4.67043 155.513 5.60457C154.495 6.72477 154.483 7.38494 154.302 8.98754C152.771 8.98754 151.239 8.98754 149.661 8.98754C149.661 6.19429 150.119 4.46711 152.03 2.44703C153.759 0.799254 155.949 0.205032 158.298 0.191197Z" fill="#EDE8D0"/>
<path d="M149.661 15.9525C151.192 15.9525 152.724 15.9525 154.302 15.9525C154.317 17.4683 154.328 18.9841 154.335 20.4999C154.339 21.0157 154.343 21.5315 154.348 22.0472C154.355 22.7882 154.359 23.529 154.361 24.27C154.364 24.501 154.368 24.7319 154.371 24.9698C154.371 25.1849 154.371 25.4 154.371 25.6216C154.372 25.8107 154.374 25.9999 154.375 26.1947C154.302 26.6984 154.302 26.6984 153.697 27.4944C152.365 27.4944 151.033 27.4944 149.661 27.4944C149.661 23.6856 149.661 19.8768 149.661 15.9525Z" fill="#EDE8D0"/>
<path d="M175.088 21.1264C176.686 21.1264 178.285 21.1264 179.931 21.1264C179.945 21.9338 179.957 22.7409 179.965 23.5483C179.968 23.8228 179.972 24.0973 179.977 24.3717C179.984 24.7669 179.987 25.1621 179.99 25.5573C179.994 25.7949 179.997 26.0325 180 26.2773C179.925 26.9574 179.841 27.2376 179.326 27.6934C178.868 27.7838 178.868 27.7838 178.34 27.7711C178.084 27.7681 178.084 27.7681 177.823 27.7651C177.607 27.7579 177.391 27.7506 177.169 27.7431C176.482 27.7267 175.796 27.7103 175.088 27.6934C175.088 25.5263 175.088 23.3592 175.088 21.1264Z" fill="#EDE8D0"/>
<path d="M123.83 24.1114C123.841 24.6007 123.849 25.0897 123.855 25.579C123.858 25.7181 123.862 25.8571 123.865 26.0003C123.869 26.3659 123.851 26.7314 123.83 27.0964C123.426 27.4944 123.426 27.4944 123.047 27.5396C122.897 27.5375 122.747 27.5354 122.592 27.5333C122.43 27.532 122.267 27.5307 122.099 27.5294C121.93 27.526 121.76 27.5227 121.585 27.5193C121.328 27.5166 121.328 27.5166 121.065 27.5138C120.641 27.5091 120.218 27.502 119.794 27.4944C119.794 27.1004 119.794 26.7064 119.794 26.3004C119.988 26.1924 120.183 26.0844 120.383 25.9731C120.641 25.8294 120.898 25.6856 121.156 25.5417C121.284 25.4708 121.412 25.3999 121.544 25.3268C122.083 25.0246 122.593 24.7278 123.089 24.3578C123.426 24.1114 123.426 24.1114 123.83 24.1114Z" fill="#EDE8D0"/>
</svg>
